<svg xmlns="http://www.w3.org/2000/svg" viewBox="0 0 77.67 43.09"><defs><style>.cls-1{fill:#00c0a5;}</style></defs><g id="Capa_2" data-name="Capa 2"><g id="Capa_1-2" data-name="Capa 1"><path class="cls-1" d="M29.72,34.79c-.36,0-1,0-1.34,0a26.31,26.31,0,0,1,1.86-9.52c.21-.5-1.18-.42-1.4-.24a37.75,37.75,0,0,0-6.57,7c-.17.23-.34.47-.5.71l.15-.47q.82-2.52,1.68-5c1.73-1.92,3-3.68,4.86-6.06C34.4,13.37,40,0,34.67,0c-4.15,0-9.5,14.19-13,26.81-1.63,2.1-9.53,12-16.08,12-4.15,0-2.93-6.06-2.27-8.33a36.53,36.53,0,0,1,3.2-7.73C16.34,22.75,25.3,11.41,23,9.13s-6.27-.26-9.22,2.25A40.26,40.26,0,0,0,7,19c-.71,1-1.26,1.79-1.88,2.86h0A4.27,4.27,0,0,1,2,19.27a8.79,8.79,0,0,1,0-7.34A16.11,16.11,0,0,1,8.58,4.68c.24-.13-1.27.22-1.46.32a14.14,14.14,0,0,0-5.95,6.54C.05,14.05-.5,17.16.6,19.76a4.72,4.72,0,0,0,4.08,2.87,39.35,39.35,0,0,0-2.31,5A30.37,30.37,0,0,0,.92,32.39c-.9,4.55.7,8,4.58,8C13.13,40.42,21.05,29,21,29c-1.08,3.27-2.89,8.18-3.65,11.55-.09.4,1.36.5,1.67.09h0c.33-.81.63-1.64.92-2.48a31.74,31.74,0,0,1,3.56-6,38.36,38.36,0,0,1,4.36-4.91,25.93,25.93,0,0,0-1.26,8c0,.28,2.68.13,2.68.13S29.86,34.79,29.72,34.79ZM13.11,14.13C15.2,12,18.88,9.69,21.43,9.69c5.48,0-8,12.1-14.26,12.1A39.94,39.94,0,0,1,13.11,14.13ZM34.27,1.61c2.54,0-3.88,15.65-10.17,23.15C27.58,12,31.73,1.61,34.27,1.61Z"/><path class="cls-1" d="M50.59,16.46c-.53,0-1.71-.42-1.84,0-.57,1.58-1.64,6.32-5.2,6.32a2.69,2.69,0,0,0-.23-.76,1.64,1.64,0,0,0-2.16-.73c-1,.43-.68,1.71.08,2.22a2.59,2.59,0,0,0,1.54.43V24a13.49,13.49,0,0,1-.56,3.56c-.34,1.1-2.45,5.74-3.93,5.74-1.74,0,.3-5.92.74-7.16.07-.2-.6-.2-.65-.1-.62,1.51-2.85,9.39-4.5,9.54-1.47.13-1-4.37-.13-6.29s2.27-4.55,4.81-4.55l.08-.15c-5.56,0-7.76,5.37-7.76,8.79,0,2.6,1,3.4,2.06,3.4a3.68,3.68,0,0,0,3.23-2.35c.2-.34.39-.7.57-1.06a1.59,1.59,0,0,0,.52.51c2.91,1.83,4.59-2.64,5.32-4.32a15.9,15.9,0,0,0,1.07-3.75,7.26,7.26,0,0,0,0-2,6.77,6.77,0,0,0,1.83-.75c.27-.15.53-.32.78-.49l-.33.95c-1.59,4.7-6.68,19.51,1.08,19.51.4,0,1.5-.7,1.2-.8C37.48,38.81,50.68,16.51,50.59,16.46ZM41.73,22.2c0-.29.16-.53.44-.43s.41.51.48.74a2.77,2.77,0,0,1,.1.5A1,1,0,0,1,41.73,22.2Z"/><path class="cls-1" d="M55.94,6c.13-.18-1.64,0-1.73.27C52.06,12.45,49,29.71,48.07,34.85c0,.21,2,.21,2,0C50.33,30,53.8,9.1,55.94,6Z"/><path class="cls-1" d="M57.82,30.16C60.67,28.36,66,23.3,66,20.23c0-2.44-3.6.34-4.42,1.28-1.09,1.25-4,4.62-4,9.16,0,1.37.43,2.92,1.76,2.92,1.64,0,3.15-1.89,4.25-3.07a32,32,0,0,1,4.69-4.69c1.34-.94,5.34-3.14,7.63-3.21.39,0,2.11-1.74,1.74-1.74-7.3,0-15.33,11.52-18,11.52-1,0-.62-2.56-.5-3.3a15.43,15.43,0,0,1,1.44-4.33c.67-1.35,2.76-4.43,4-4.43s-2.82,7-6.7,9.22c-.24.14-.08.59.12.46Z"/><path class="cls-1" d="M55.59,22.26c-.15,2.09-2.33,10-3,12.55-.09.27,1.25,0,1.42-.33.46-1.81,2.38-3.46,3.85-4.47.17-.12.15-.55,0-.45A19.68,19.68,0,0,0,54.53,32a29,29,0,0,0-1.94,2.75L54,34.48a55.67,55.67,0,0,0,2.14-7.91c.27-1.28.67-3.57.82-4.46C57,21.86,55.59,22.26,55.59,22.26Z"/><path class="cls-1" d="M57.53,19.58l0-.09a.17.17,0,0,0,0-.17.24.24,0,0,0-.15-.13.59.59,0,0,0-.23-.05.93.93,0,0,0-.29,0l-.21.05a1.62,1.62,0,0,0-.37.19l-.13.12a.51.51,0,0,0-.14.26l0,.08A.2.2,0,0,0,56,20a.22.22,0,0,0,.14.13.69.69,0,0,0,.24.05,1,1,0,0,0,.29,0l.21-.05a1.85,1.85,0,0,0,.37-.19l.13-.12a.44.44,0,0,0,.13-.25Z"/></g></g></svg>