<svg xmlns="http://www.w3.org/2000/svg" viewBox="0 0 325.67 180.68"><defs><style>.cls-1{fill:#00eab5;}</style></defs><g id="Capa_2" data-name="Capa 2"><g id="Capa_1-2" data-name="Capa 1"><path class="cls-1" d="M124.62,145.89c-1.53,0-4.09.12-5.61,0,.49-13.82,2.33-27.12,7.77-39.93.89-2.09-4.94-1.76-5.85-1a158.36,158.36,0,0,0-27.56,29.22c-.71,1-1.41,2-2.1,3,.21-.67.43-1.33.65-2q3.45-10.53,7-21c7.28-8,12.78-15.4,20.37-25.38C144.23,56.05,167.81,0,145.37,0,128,0,105.54,59.48,91.05,112.43c-6.82,8.77-39.92,50.29-67.41,50.29-17.39,0-12.29-25.4-9.49-34.92A151.78,151.78,0,0,1,27.57,95.39c40.92,0,78.5-47.56,68.94-57.13S70.24,37.17,57.86,47.7a170.32,170.32,0,0,0-28.6,31.75,139.16,139.16,0,0,0-7.86,12h0C15.54,90.79,11.05,85.9,8.49,80.8c-5-10-4.09-20.7-.15-30.79C13,38.06,24.84,26,36,19.64c1-.57-5.34.9-6.11,1.33A59.44,59.44,0,0,0,4.9,48.4c-4.68,10.49-7,23.54-2.39,34.46,3.26,7.71,9.82,11.25,17.12,12A162.31,162.31,0,0,0,9.93,116a126.58,126.58,0,0,0-6.09,19.81c-3.76,19.06,3,33.65,19.24,33.65,32,0,65.18-48,65.07-47.7C83.6,135.49,76,156.06,72.84,170.19c-.37,1.66,5.69,2.1,7,.39h.07c1.38-3.43,2.65-6.9,3.86-10.4a131.15,131.15,0,0,1,14.93-25A159.45,159.45,0,0,1,117,114.6a108.35,108.35,0,0,0-5.26,33.54c0,1.15,11.22.56,11.22.56S125.18,145.89,124.62,145.89ZM55,59.23c8.75-9,24.2-18.6,34.89-18.6,23,0-33.69,50.73-59.8,50.73A169,169,0,0,1,55,59.23Zm88.71-52.5c10.66,0-16.27,65.65-42.63,97.08C115.64,50.5,133,6.73,143.69,6.73Z"/><path class="cls-1" d="M212.13,69c-2.24,0-7.18-1.78-7.73.12-2.37,6.61-6.85,26.51-21.78,26.51a12.47,12.47,0,0,0-1-3.19,6.9,6.9,0,0,0-9.07-3.07c-4.23,1.79-2.88,7.18.33,9.33a11.13,11.13,0,0,0,6.43,1.79v.19A56.43,56.43,0,0,1,177,115.63c-1.39,4.62-10.28,24.09-16.45,24.09-7.29,0,1.23-24.84,3.08-30,.29-.83-2.52-.83-2.73-.41-2.59,6.31-12,39.35-18.86,40-6.17.56-4.31-18.33-.56-26.37,3.92-8.42,9.53-19.08,20.19-19.08l.32-.6c-23.32,0-32.54,22.48-32.54,36.82,0,10.91,4.17,14.28,8.66,14.28,8.42,0,11.87-6.83,13.55-9.85.82-1.46,1.61-3,2.36-4.45a7.09,7.09,0,0,0,2.19,2.13c12.19,7.68,19.25-11.06,22.29-18.13A63.71,63.71,0,0,0,183,108.3a30.65,30.65,0,0,0-.07-8.22,28.55,28.55,0,0,0,7.7-3.13c1.11-.65,2.19-1.35,3.23-2.08-.46,1.33-.91,2.66-1.35,4-6.67,19.75-28,81.83,4.51,81.83,1.69,0,6.3-3,5.05-3.37C157.16,162.72,212.51,69.21,212.13,69ZM175,93.06c-.12-1.18.66-2.2,1.86-1.77s1.71,2.11,2,3.09a11.36,11.36,0,0,1,.41,2.09C177.25,96.41,175.19,95.36,175,93.06Z"/><path class="cls-1" d="M234.57,25.25c.53-.76-6.91,0-7.29,1.12-9,25.81-21.88,98.2-25.73,119.77-.08.87,8.34.87,8.52,0C211,125.69,225.59,38.16,234.57,25.25Z"/><path class="cls-1" d="M242.45,126.46c11.92-7.56,34.16-28.76,34.16-41.64,0-10.25-15.08,1.43-18.54,5.38-4.58,5.23-16.75,19.38-16.75,38.41,0,5.75,1.8,12.22,7.37,12.22,6.88,0,13.19-7.92,17.82-12.86,6.42-6.85,12-14.28,19.67-19.67,5.61-3.93,22.39-13.16,32-13.47,1.64,0,8.86-7.3,7.29-7.3-30.62,0-64.26,48.3-75.51,48.3-4.37,0-2.61-10.7-2.1-13.83a63.94,63.94,0,0,1,6-18.14c2.82-5.66,11.57-18.56,16.63-18.56S258.69,114.58,242.45,124c-1,.58-.36,2.45.48,1.91Z"/><path class="cls-1" d="M233.07,93.33c-.62,8.75-9.76,41.74-12.74,52.63-.38,1.12,5.24-.13,6-1.4,1.92-7.59,10-14.51,16.16-18.73.71-.49.62-2.29,0-1.87-3.87,2.55-10.74,6.59-13.81,10.06s-5.42,7.62-8.14,11.5l5.79-1a233,233,0,0,0,9-33.16c1.12-5.38,2.79-15,3.42-18.7C238.87,91.64,233.07,93.33,233.07,93.33Z"/><path class="cls-1" d="M241.24,82.08l.11-.37a.77.77,0,0,0-.18-.72,1,1,0,0,0-.61-.52,2.29,2.29,0,0,0-1-.2,3.47,3.47,0,0,0-1.2.06l-.88.23a6,6,0,0,0-1.55.8l-.55.5a2,2,0,0,0-.57,1.06l-.11.36a.77.77,0,0,0,.18.72,1,1,0,0,0,.61.53,2.29,2.29,0,0,0,1,.2,3.47,3.47,0,0,0,1.2-.06l.88-.23a6,6,0,0,0,1.55-.8l.55-.5a2.12,2.12,0,0,0,.57-1.06Z"/></g></g></svg>